<?xml version="1.0" encoding="UTF-8" standalone="no"?>
<!-- Generator: Adobe Illustrator 16.0.0, SVG Export Plug-In . SVG Version: 6.00 Build 0)  -->

<svg
   version="1.1"
   id="Layer_1"
   x="0px"
   y="0px"
   width="154.99998"
   height="55"
   viewBox="0 0 154.99998 55"
   enable-background="new 0 0 297.64 185.5"
   xml:space="preserve"
   xmlns="http://www.w3.org/2000/svg"
   xmlns:svg="http://www.w3.org/2000/svg"><defs
   id="defs476" />
<g
   id="g471"
   transform="matrix(0.78282828,0,0,0.7639632,-41.286365,-43.357202)">
	<linearGradient
   id="SVGID_1_"
   gradientUnits="userSpaceOnUse"
   x1="61.903301"
   y1="40.882801"
   x2="241.57651"
   y2="144.6172">
		<stop
   offset="0"
   style="stop-color:#6A30C3"
   id="stop256" />
		<stop
   offset="0.1496"
   style="stop-color:#7935C3"
   id="stop258" />
		<stop
   offset="0.4394"
   style="stop-color:#A244C3"
   id="stop260" />
		<stop
   offset="0.837"
   style="stop-color:#E25BC3"
   id="stop262" />
		<stop
   offset="1"
   style="stop-color:#FF65C3"
   id="stop264" />
	</linearGradient>
	<rect
   x="52.740002"
   y="56.752998"
   fill="url(#SVGID_1_)"
   width="198"
   height="71.992996"
   id="rect267"
   style="fill:url(#SVGID_1_)" />
	<rect
   x="152.545"
   y="59.700001"
   fill="#ffffff"
   width="94.875999"
   height="65.480003"
   id="rect269" />
	<g
   id="g279">
		<path
   fill="#ffffff"
   d="m 81.66,101.205 c 0,0.332 -0.018,0.649 -0.053,0.951 -0.036,0.303 -0.09,0.62 -0.16,0.951 h -12.34 c 0.337,0.937 0.879,1.703 1.626,2.297 0.747,0.594 1.608,0.892 2.585,0.892 0.693,0 1.332,-0.151 1.918,-0.454 0.586,-0.302 1.102,-0.717 1.546,-1.243 h 4.104 c -0.267,0.859 -0.653,1.634 -1.16,2.326 -0.506,0.693 -1.089,1.278 -1.746,1.756 -0.657,0.478 -1.386,0.849 -2.185,1.111 -0.8,0.263 -1.626,0.396 -2.479,0.396 -1.084,0 -2.132,-0.234 -3.146,-0.703 -1.012,-0.468 -1.905,-1.107 -2.678,-1.916 -0.773,-0.81 -1.39,-1.76 -1.853,-2.853 -0.462,-1.092 -0.693,-2.262 -0.693,-3.511 0,-1.287 0.223,-2.477 0.667,-3.569 0.444,-1.093 1.048,-2.039 1.813,-2.838 0.764,-0.8 1.656,-1.424 2.678,-1.873 1.021,-0.449 2.109,-0.673 3.265,-0.673 1.137,0 2.207,0.234 3.211,0.703 1.003,0.468 1.883,1.102 2.638,1.902 0.755,0.799 1.35,1.746 1.786,2.837 0.437,1.092 0.656,2.263 0.656,3.511 z m -4.052,-1.697 c -0.32,-1.034 -0.862,-1.853 -1.626,-2.458 -0.764,-0.604 -1.635,-0.907 -2.611,-0.907 -0.96,0 -1.822,0.303 -2.585,0.907 -0.765,0.605 -1.307,1.424 -1.626,2.458 z"
   id="path271" />
		<path
   fill="#ffffff"
   d="m 97.603,107.204 h -0.056 c -0.278,0.39 -0.597,0.765 -0.958,1.126 -0.361,0.36 -0.764,0.678 -1.208,0.951 -0.445,0.273 -0.936,0.492 -1.473,0.659 -0.538,0.166 -1.121,0.249 -1.751,0.249 -1.111,0 -2.158,-0.224 -3.14,-0.673 -0.982,-0.448 -1.839,-1.077 -2.571,-1.886 -0.732,-0.81 -1.311,-1.761 -1.736,-2.853 -0.427,-1.092 -0.639,-2.283 -0.639,-3.57 0,-1.287 0.212,-2.477 0.639,-3.569 0.426,-1.093 1.004,-2.039 1.736,-2.838 0.732,-0.8 1.588,-1.424 2.571,-1.873 0.981,-0.449 2.028,-0.673 3.14,-0.673 0.63,0 1.213,0.078 1.751,0.234 0.537,0.156 1.028,0.371 1.473,0.643 0.444,0.274 0.847,0.591 1.208,0.952 0.361,0.361 0.681,0.736 0.958,1.126 h 0.056 V 92.75 h 3.863 v 16.94 h -3.863 z m 0,-5.999 c 0,-0.683 -0.121,-1.326 -0.361,-1.931 -0.241,-0.604 -0.574,-1.131 -1,-1.58 -0.426,-0.449 -0.926,-0.805 -1.5,-1.067 -0.574,-0.263 -1.195,-0.396 -1.862,-0.396 -0.648,0 -1.259,0.132 -1.833,0.396 -0.574,0.263 -1.075,0.619 -1.5,1.067 -0.426,0.449 -0.764,0.976 -1.014,1.58 -0.25,0.605 -0.375,1.248 -0.375,1.931 0,0.683 0.125,1.332 0.375,1.946 0.25,0.615 0.588,1.146 1.014,1.594 0.426,0.45 0.926,0.805 1.5,1.069 0.574,0.262 1.185,0.395 1.833,0.395 0.667,0 1.288,-0.133 1.862,-0.395 0.574,-0.264 1.074,-0.619 1.5,-1.069 0.426,-0.448 0.759,-0.979 1,-1.594 0.239,-0.614 0.361,-1.263 0.361,-1.946 z"
   id="path273" />
		<path
   fill="#ffffff"
   d="m 115.111,97.987 c 0,-0.235 -0.063,-0.488 -0.187,-0.761 -0.125,-0.273 -0.297,-0.522 -0.52,-0.746 -0.223,-0.224 -0.498,-0.41 -0.826,-0.557 -0.329,-0.146 -0.697,-0.219 -1.106,-0.219 -0.338,0 -0.662,0.049 -0.973,0.146 -0.311,0.098 -0.582,0.229 -0.813,0.395 -0.231,0.167 -0.418,0.366 -0.56,0.6 -0.142,0.234 -0.213,0.488 -0.213,0.761 0,0.391 0.12,0.658 0.36,0.805 0.24,0.146 0.555,0.287 0.946,0.424 l 3.305,0.937 c 0.639,0.175 1.248,0.39 1.826,0.643 0.577,0.254 1.079,0.576 1.506,0.965 0.426,0.391 0.763,0.863 1.012,1.42 0.249,0.555 0.374,1.234 0.374,2.034 0,0.877 -0.183,1.648 -0.547,2.311 -0.364,0.663 -0.857,1.224 -1.479,1.683 -0.623,0.458 -1.351,0.799 -2.186,1.024 -0.835,0.224 -1.732,0.336 -2.691,0.336 -0.942,0 -1.821,-0.143 -2.639,-0.424 -0.817,-0.283 -1.528,-0.678 -2.132,-1.185 -0.604,-0.508 -1.079,-1.112 -1.425,-1.814 -0.347,-0.703 -0.52,-1.474 -0.52,-2.313 h 3.651 c 0,0.273 0.084,0.542 0.253,0.806 0.168,0.263 0.39,0.502 0.666,0.716 0.275,0.215 0.6,0.391 0.973,0.527 0.373,0.137 0.764,0.206 1.173,0.206 0.835,0 1.545,-0.161 2.132,-0.483 0.587,-0.322 0.88,-0.785 0.88,-1.389 0,-0.391 -0.138,-0.674 -0.413,-0.849 -0.276,-0.176 -0.68,-0.332 -1.212,-0.468 l -3.278,-0.908 c -0.604,-0.175 -1.177,-0.398 -1.719,-0.672 -0.542,-0.272 -1.017,-0.615 -1.426,-1.024 -0.409,-0.41 -0.733,-0.888 -0.973,-1.434 -0.24,-0.546 -0.36,-1.17 -0.36,-1.873 0,-0.878 0.174,-1.648 0.52,-2.311 0.347,-0.663 0.813,-1.219 1.399,-1.668 0.586,-0.448 1.274,-0.79 2.065,-1.024 0.79,-0.234 1.63,-0.351 2.519,-0.351 0.888,0 1.714,0.151 2.479,0.453 0.764,0.303 1.426,0.713 1.985,1.229 0.56,0.517 1,1.122 1.319,1.814 0.319,0.692 0.479,1.438 0.479,2.238 z"
   id="path275" />
		<path
   fill="#ffffff"
   d="m 127.462,117.414 h -4.708 l 4.467,-8.104 -7.095,-16.56 h 4.741 l 4.676,11.029 h 0.064 l 4.676,-11.029 h 4.708 z"
   id="path277" />
	</g>
	<g
   id="g283">
		<path
   fill="#ffffff"
   d="m 142.324,109.548 c -0.686,0 -1.269,-0.252 -1.75,-0.758 -0.482,-0.505 -0.723,-1.117 -0.723,-1.836 0,-0.719 0.241,-1.331 0.723,-1.836 0.481,-0.505 1.064,-0.758 1.75,-0.758 0.685,0 1.269,0.252 1.75,0.758 0.482,0.505 0.723,1.118 0.723,1.836 0,0.719 -0.241,1.331 -0.723,1.836 -0.482,0.506 -1.065,0.758 -1.75,0.758 z"
   id="path281" />
	</g>
	<g
   id="g393">
		<g
   id="g297">
			<path
   d="m 169.067,70.413 c 1.714,0 3.125,0.479 4.233,1.438 1.107,0.959 1.791,2.067 2.049,3.323 h -2.977 c -0.181,-0.661 -0.567,-1.217 -1.158,-1.667 -0.595,-0.449 -1.316,-0.674 -2.166,-0.674 -1.174,0 -2.134,0.443 -2.881,1.329 -0.748,0.886 -1.121,2.031 -1.121,3.432 0,1.336 0.376,2.469 1.131,3.402 0.754,0.932 1.723,1.398 2.909,1.398 0.901,0 1.64,-0.245 2.214,-0.734 0.572,-0.489 0.977,-1.098 1.209,-1.825 h 3.072 c -0.451,1.481 -1.23,2.681 -2.34,3.6 -1.107,0.919 -2.519,1.378 -4.232,1.378 -2.011,0 -3.645,-0.684 -4.9,-2.053 -1.258,-1.369 -1.885,-3.097 -1.885,-5.187 0,-2.063 0.645,-3.772 1.934,-5.128 1.288,-1.355 2.924,-2.032 4.909,-2.032 z"
   id="path285" />
			<path
   d="m 184.4,76.778 c -0.816,0 -1.852,0.252 -2.273,0.757 -0.424,0.504 -0.635,1.218 -0.635,2.142 v 4.966 h -2.803 V 74.434 h 2.741 v 1.577 h 0.062 c 0.292,-0.54 0.693,-0.987 1.206,-1.343 0.512,-0.355 1.079,-0.533 1.702,-0.533"
   id="path287" />
			<path
   d="m 195.428,74.136 -5.44,15.218 h -2.659 l 1.828,-5.094 -3.614,-10.124 h 2.908 l 1.434,4.433 c 0.345,1.137 0.566,1.975 0.664,2.515 h 0.082 c 0.125,-0.696 0.34,-1.534 0.645,-2.515 l 1.392,-4.433 z"
   id="path289" />
			<path
   d="M 197.705,89.354 V 74.136 h 2.699 v 1.215 h 0.084 c 0.803,-0.994 1.869,-1.492 3.197,-1.492 1.164,0 2.216,0.483 3.158,1.449 0.941,0.966 1.412,2.295 1.412,3.985 0,1.591 -0.464,2.888 -1.393,3.89 -0.928,1.002 -2.041,1.503 -3.344,1.503 -1.26,0 -2.257,-0.491 -2.99,-1.471 h -0.082 v 6.139 z m 7.705,-10.061 c 0,-0.824 -0.222,-1.52 -0.665,-2.088 -0.442,-0.568 -1.079,-0.853 -1.911,-0.853 -0.691,0 -1.277,0.274 -1.754,0.821 -0.479,0.547 -0.717,1.254 -0.717,2.121 0,0.853 0.242,1.556 0.727,2.11 0.485,0.554 1.073,0.832 1.766,0.832 0.803,0 1.43,-0.295 1.88,-0.885 0.449,-0.59 0.674,-1.276 0.674,-2.058 z"
   id="path291" />
			<path
   d="m 209.946,76.565 v -2.43 h 1.204 v -3.261 h 2.824 v 3.261 h 2.348 v 2.43 h -2.348 v 3.964 c 0,0.583 0.094,0.98 0.281,1.193 0.187,0.213 0.509,0.32 0.966,0.32 0.429,0 0.83,-0.057 1.204,-0.17 v 2.344 c -0.623,0.185 -1.273,0.277 -1.952,0.277 -1.19,0 -2.042,-0.316 -2.555,-0.949 -0.513,-0.632 -0.769,-1.538 -0.769,-2.717 v -4.263 h -1.203 z"
   id="path293" />
			<path
   d="m 217.806,79.229 c 0,-1.577 0.504,-2.877 1.516,-3.9 1.01,-1.023 2.277,-1.535 3.801,-1.535 1.551,0 2.824,0.515 3.821,1.545 0.997,1.03 1.496,2.327 1.496,3.89 0,1.521 -0.503,2.813 -1.506,3.879 -1.005,1.066 -2.274,1.599 -3.812,1.599 -1.523,0 -2.791,-0.525 -3.801,-1.577 -1.011,-1.051 -1.515,-2.352 -1.515,-3.901 z m 2.824,0.022 c 0,0.838 0.238,1.531 0.717,2.078 0.477,0.547 1.069,0.82 1.775,0.82 0.748,0 1.346,-0.273 1.797,-0.82 0.449,-0.547 0.675,-1.24 0.675,-2.078 0,-0.824 -0.222,-1.513 -0.665,-2.067 -0.443,-0.554 -1.045,-0.832 -1.807,-0.832 -0.762,0 -1.367,0.271 -1.817,0.81 -0.45,0.54 -0.675,1.236 -0.675,2.089 z"
   id="path295" />
		</g>
		<g
   id="g377">
			<linearGradient
   id="SVGID_2_"
   gradientUnits="userSpaceOnUse"
   x1="162.22411"
   y1="79.882797"
   x2="228.4399"
   y2="79.882797">
				<stop
   offset="0"
   style="stop-color:#6A30C3"
   id="stop299" />
				<stop
   offset="0.1496"
   style="stop-color:#7935C3"
   id="stop301" />
				<stop
   offset="0.4394"
   style="stop-color:#A244C3"
   id="stop303" />
				<stop
   offset="0.837"
   style="stop-color:#E25BC3"
   id="stop305" />
				<stop
   offset="1"
   style="stop-color:#FF65C3"
   id="stop307" />
			</linearGradient>
			<path
   fill="url(#SVGID_2_)"
   d="m 169.067,70.413 c 1.714,0 3.125,0.479 4.233,1.438 1.107,0.959 1.791,2.067 2.049,3.323 h -2.977 c -0.181,-0.661 -0.567,-1.217 -1.158,-1.667 -0.595,-0.449 -1.316,-0.674 -2.166,-0.674 -1.174,0 -2.134,0.443 -2.881,1.329 -0.748,0.886 -1.121,2.031 -1.121,3.432 0,1.336 0.376,2.469 1.131,3.402 0.754,0.932 1.723,1.398 2.909,1.398 0.901,0 1.64,-0.245 2.214,-0.734 0.572,-0.489 0.977,-1.098 1.209,-1.825 h 3.072 c -0.451,1.481 -1.23,2.681 -2.34,3.6 -1.107,0.919 -2.519,1.378 -4.232,1.378 -2.011,0 -3.645,-0.684 -4.9,-2.053 -1.258,-1.369 -1.885,-3.097 -1.885,-5.187 0,-2.063 0.645,-3.772 1.934,-5.128 1.288,-1.355 2.924,-2.032 4.909,-2.032 z"
   id="path310"
   style="fill:url(#SVGID_2_)" />
			<linearGradient
   id="SVGID_3_"
   gradientUnits="userSpaceOnUse"
   x1="162.22411"
   y1="79.882797"
   x2="228.4399"
   y2="79.882797">
				<stop
   offset="0"
   style="stop-color:#6A30C3"
   id="stop312" />
				<stop
   offset="0.1496"
   style="stop-color:#7935C3"
   id="stop314" />
				<stop
   offset="0.4394"
   style="stop-color:#A244C3"
   id="stop316" />
				<stop
   offset="0.837"
   style="stop-color:#E25BC3"
   id="stop318" />
				<stop
   offset="1"
   style="stop-color:#FF65C3"
   id="stop320" />
			</linearGradient>
			<path
   fill="url(#SVGID_3_)"
   d="m 184.4,76.778 c -0.816,0 -1.852,0.252 -2.273,0.757 -0.424,0.504 -0.635,1.218 -0.635,2.142 v 4.966 h -2.803 V 74.434 h 2.741 v 1.577 h 0.062 c 0.292,-0.54 0.693,-0.987 1.206,-1.343 0.512,-0.355 1.079,-0.533 1.702,-0.533"
   id="path323"
   style="fill:url(#SVGID_3_)" />
			<linearGradient
   id="SVGID_4_"
   gradientUnits="userSpaceOnUse"
   x1="162.22411"
   y1="79.882797"
   x2="228.4399"
   y2="79.882797">
				<stop
   offset="0"
   style="stop-color:#6A30C3"
   id="stop325" />
				<stop
   offset="0.1496"
   style="stop-color:#7935C3"
   id="stop327" />
				<stop
   offset="0.4394"
   style="stop-color:#A244C3"
   id="stop329" />
				<stop
   offset="0.837"
   style="stop-color:#E25BC3"
   id="stop331" />
				<stop
   offset="1"
   style="stop-color:#FF65C3"
   id="stop333" />
			</linearGradient>
			<path
   fill="url(#SVGID_4_)"
   d="m 195.428,74.136 -5.44,15.218 h -2.659 l 1.828,-5.094 -3.614,-10.124 h 2.908 l 1.434,4.433 c 0.345,1.137 0.566,1.975 0.664,2.515 h 0.082 c 0.125,-0.696 0.34,-1.534 0.645,-2.515 l 1.392,-4.433 z"
   id="path336"
   style="fill:url(#SVGID_4_)" />
			<linearGradient
   id="SVGID_5_"
   gradientUnits="userSpaceOnUse"
   x1="162.22411"
   y1="79.882797"
   x2="228.4399"
   y2="79.882797">
				<stop
   offset="0"
   style="stop-color:#6A30C3"
   id="stop338" />
				<stop
   offset="0.1496"
   style="stop-color:#7935C3"
   id="stop340" />
				<stop
   offset="0.4394"
   style="stop-color:#A244C3"
   id="stop342" />
				<stop
   offset="0.837"
   style="stop-color:#E25BC3"
   id="stop344" />
				<stop
   offset="1"
   style="stop-color:#FF65C3"
   id="stop346" />
			</linearGradient>
			<path
   fill="url(#SVGID_5_)"
   d="M 197.705,89.354 V 74.136 h 2.699 v 1.215 h 0.084 c 0.803,-0.994 1.869,-1.492 3.197,-1.492 1.164,0 2.216,0.483 3.158,1.449 0.941,0.966 1.412,2.295 1.412,3.985 0,1.591 -0.464,2.888 -1.393,3.89 -0.928,1.002 -2.041,1.503 -3.344,1.503 -1.26,0 -2.257,-0.491 -2.99,-1.471 h -0.082 v 6.139 z m 7.705,-10.061 c 0,-0.824 -0.222,-1.52 -0.665,-2.088 -0.442,-0.568 -1.079,-0.853 -1.911,-0.853 -0.691,0 -1.277,0.274 -1.754,0.821 -0.479,0.547 -0.717,1.254 -0.717,2.121 0,0.853 0.242,1.556 0.727,2.11 0.485,0.554 1.073,0.832 1.766,0.832 0.803,0 1.43,-0.295 1.88,-0.885 0.449,-0.59 0.674,-1.276 0.674,-2.058 z"
   id="path349"
   style="fill:url(#SVGID_5_)" />
			<linearGradient
   id="SVGID_6_"
   gradientUnits="userSpaceOnUse"
   x1="162.22411"
   y1="79.882797"
   x2="228.4399"
   y2="79.882797">
				<stop
   offset="0"
   style="stop-color:#6A30C3"
   id="stop351" />
				<stop
   offset="0.1496"
   style="stop-color:#7935C3"
   id="stop353" />
				<stop
   offset="0.4394"
   style="stop-color:#A244C3"
   id="stop355" />
				<stop
   offset="0.837"
   style="stop-color:#E25BC3"
   id="stop357" />
				<stop
   offset="1"
   style="stop-color:#FF65C3"
   id="stop359" />
			</linearGradient>
			<path
   fill="url(#SVGID_6_)"
   d="m 209.946,76.565 v -2.43 h 1.204 v -3.261 h 2.824 v 3.261 h 2.348 v 2.43 h -2.348 v 3.964 c 0,0.583 0.094,0.98 0.281,1.193 0.187,0.213 0.509,0.32 0.966,0.32 0.429,0 0.83,-0.057 1.204,-0.17 v 2.344 c -0.623,0.185 -1.273,0.277 -1.952,0.277 -1.19,0 -2.042,-0.316 -2.555,-0.949 -0.513,-0.632 -0.769,-1.538 -0.769,-2.717 v -4.263 h -1.203 z"
   id="path362"
   style="fill:url(#SVGID_6_)" />
			<linearGradient
   id="SVGID_7_"
   gradientUnits="userSpaceOnUse"
   x1="162.22411"
   y1="79.882797"
   x2="228.4399"
   y2="79.882797">
				<stop
   offset="0"
   style="stop-color:#6A30C3"
   id="stop364" />
				<stop
   offset="0.1496"
   style="stop-color:#7935C3"
   id="stop366" />
				<stop
   offset="0.4394"
   style="stop-color:#A244C3"
   id="stop368" />
				<stop
   offset="0.837"
   style="stop-color:#E25BC3"
   id="stop370" />
				<stop
   offset="1"
   style="stop-color:#FF65C3"
   id="stop372" />
			</linearGradient>
			<path
   fill="url(#SVGID_7_)"
   d="m 217.806,79.229 c 0,-1.577 0.504,-2.877 1.516,-3.9 1.01,-1.023 2.277,-1.535 3.801,-1.535 1.551,0 2.824,0.515 3.821,1.545 0.997,1.03 1.496,2.327 1.496,3.89 0,1.521 -0.503,2.813 -1.506,3.879 -1.005,1.066 -2.274,1.599 -3.812,1.599 -1.523,0 -2.791,-0.525 -3.801,-1.577 -1.011,-1.051 -1.515,-2.352 -1.515,-3.901 z m 2.824,0.022 c 0,0.838 0.238,1.531 0.717,2.078 0.477,0.547 1.069,0.82 1.775,0.82 0.748,0 1.346,-0.273 1.797,-0.82 0.449,-0.547 0.675,-1.24 0.675,-2.078 0,-0.824 -0.222,-1.513 -0.665,-2.067 -0.443,-0.554 -1.045,-0.832 -1.807,-0.832 -0.762,0 -1.367,0.271 -1.817,0.81 -0.45,0.54 -0.675,1.236 -0.675,2.089 z"
   id="path375"
   style="fill:url(#SVGID_7_)" />
		</g>
		<g
   id="g391">
			<path
   fill="none"
   stroke="#ffffff"
   stroke-width="0.1"
   stroke-miterlimit="10"
   d="m 169.067,70.413 c 1.714,0 3.125,0.479 4.233,1.438 1.107,0.959 1.791,2.067 2.049,3.323 h -2.977 c -0.181,-0.661 -0.567,-1.217 -1.158,-1.667 -0.595,-0.449 -1.316,-0.674 -2.166,-0.674 -1.174,0 -2.134,0.443 -2.881,1.329 -0.748,0.886 -1.121,2.031 -1.121,3.432 0,1.336 0.376,2.469 1.131,3.402 0.754,0.932 1.723,1.398 2.909,1.398 0.901,0 1.64,-0.245 2.214,-0.734 0.572,-0.489 0.977,-1.098 1.209,-1.825 h 3.072 c -0.451,1.481 -1.23,2.681 -2.34,3.6 -1.107,0.919 -2.519,1.378 -4.232,1.378 -2.011,0 -3.645,-0.684 -4.9,-2.053 -1.258,-1.369 -1.885,-3.097 -1.885,-5.187 0,-2.063 0.645,-3.772 1.934,-5.128 1.288,-1.355 2.924,-2.032 4.909,-2.032 z"
   id="path379" />
			<path
   fill="none"
   stroke="#ffffff"
   stroke-width="0.1"
   stroke-miterlimit="10"
   d="m 184.4,76.778 c -0.816,0 -1.852,0.252 -2.273,0.757 -0.424,0.504 -0.635,1.218 -0.635,2.142 v 4.966 h -2.803 V 74.434 h 2.741 v 1.577 h 0.062 c 0.292,-0.54 0.693,-0.987 1.206,-1.343 0.512,-0.355 1.079,-0.533 1.702,-0.533"
   id="path381" />
			<path
   fill="none"
   stroke="#ffffff"
   stroke-width="0.1"
   stroke-miterlimit="10"
   d="m 195.428,74.136 -5.44,15.218 h -2.659 l 1.828,-5.094 -3.614,-10.124 h 2.908 l 1.434,4.433 c 0.345,1.137 0.566,1.975 0.664,2.515 h 0.082 c 0.125,-0.696 0.34,-1.534 0.645,-2.515 l 1.392,-4.433 z"
   id="path383" />
			<path
   fill="none"
   stroke="#ffffff"
   stroke-width="0.1"
   stroke-miterlimit="10"
   d="M 197.705,89.354 V 74.136 h 2.699 v 1.215 h 0.084 c 0.803,-0.994 1.869,-1.492 3.197,-1.492 1.164,0 2.216,0.483 3.158,1.449 0.941,0.966 1.412,2.295 1.412,3.985 0,1.591 -0.464,2.888 -1.393,3.89 -0.928,1.002 -2.041,1.503 -3.344,1.503 -1.26,0 -2.257,-0.491 -2.99,-1.471 h -0.082 v 6.139 z m 7.705,-10.061 c 0,-0.824 -0.222,-1.52 -0.665,-2.088 -0.442,-0.568 -1.079,-0.853 -1.911,-0.853 -0.691,0 -1.277,0.274 -1.754,0.821 -0.479,0.547 -0.717,1.254 -0.717,2.121 0,0.853 0.242,1.556 0.727,2.11 0.485,0.554 1.073,0.832 1.766,0.832 0.803,0 1.43,-0.295 1.88,-0.885 0.449,-0.59 0.674,-1.276 0.674,-2.058 z"
   id="path385" />
			<path
   fill="none"
   stroke="#ffffff"
   stroke-width="0.1"
   stroke-miterlimit="10"
   d="m 209.946,76.565 v -2.43 h 1.204 v -3.261 h 2.824 v 3.261 h 2.348 v 2.43 h -2.348 v 3.964 c 0,0.583 0.094,0.98 0.281,1.193 0.187,0.213 0.509,0.32 0.966,0.32 0.429,0 0.83,-0.057 1.204,-0.17 v 2.344 c -0.623,0.185 -1.273,0.277 -1.952,0.277 -1.19,0 -2.042,-0.316 -2.555,-0.949 -0.513,-0.632 -0.769,-1.538 -0.769,-2.717 v -4.263 h -1.203 z"
   id="path387" />
			<path
   fill="none"
   stroke="#ffffff"
   stroke-width="0.1"
   stroke-miterlimit="10"
   d="m 217.806,79.229 c 0,-1.577 0.504,-2.877 1.516,-3.9 1.01,-1.023 2.277,-1.535 3.801,-1.535 1.551,0 2.824,0.515 3.821,1.545 0.997,1.03 1.496,2.327 1.496,3.89 0,1.521 -0.503,2.813 -1.506,3.879 -1.005,1.066 -2.274,1.599 -3.812,1.599 -1.523,0 -2.791,-0.525 -3.801,-1.577 -1.011,-1.051 -1.515,-2.352 -1.515,-3.901 z m 2.824,0.022 c 0,0.838 0.238,1.531 0.717,2.078 0.477,0.547 1.069,0.82 1.775,0.82 0.748,0 1.346,-0.273 1.797,-0.82 0.449,-0.547 0.675,-1.24 0.675,-2.078 0,-0.824 -0.222,-1.513 -0.665,-2.067 -0.443,-0.554 -1.045,-0.832 -1.807,-0.832 -0.762,0 -1.367,0.271 -1.817,0.81 -0.45,0.54 -0.675,1.236 -0.675,2.089 z"
   id="path389" />
		</g>
	</g>
	<g
   id="g469">
		<g
   id="g403">
			<path
   d="m 166.145,101.45 h -0.088 c 0.059,1.869 0.088,2.811 0.088,2.825 v 7.424 h -2.693 V 96.764 h 2.693 l 4.161,6.417 c 0.816,1.255 1.59,2.569 2.32,3.942 h 0.066 c -0.044,-1.489 -0.066,-2.387 -0.066,-2.694 v -7.665 h 2.694 v 14.935 h -2.694 l -3.81,-5.847 c -0.978,-1.533 -1.869,-3 -2.671,-4.402 z"
   id="path395" />
			<path
   d="m 182.359,100.859 c 1.664,0 2.971,0.533 3.92,1.599 0.948,1.065 1.423,2.373 1.423,3.92 0,0.336 -0.015,0.599 -0.044,0.788 h -7.796 c 0,0.73 0.267,1.362 0.8,1.895 0.532,0.533 1.172,0.799 1.916,0.799 0.904,0 1.605,-0.365 2.102,-1.095 h 2.869 c -0.38,0.978 -0.982,1.774 -1.807,2.387 -0.825,0.613 -1.887,0.919 -3.186,0.919 -1.592,0 -2.921,-0.529 -3.986,-1.587 -1.066,-1.059 -1.599,-2.427 -1.599,-4.106 0,-1.562 0.485,-2.872 1.456,-3.931 0.971,-1.059 2.281,-1.588 3.932,-1.588 z m -0.023,2.058 c -0.687,0 -1.252,0.219 -1.696,0.657 -0.446,0.438 -0.697,0.963 -0.756,1.577 h 4.904 c -0.072,-0.627 -0.332,-1.157 -0.777,-1.587 -0.445,-0.43 -1.004,-0.647 -1.675,-0.647 z"
   id="path397" />
			<path
   d="m 198.095,111.699 -1.052,-4.599 c -0.263,-1.285 -0.401,-2.044 -0.416,-2.278 h -0.088 c -0.087,0.73 -0.255,1.635 -0.503,2.715 l -0.964,4.161 h -3.416 l -2.649,-10.489 h 2.912 l 1.227,5.277 c 0.16,0.73 0.291,1.423 0.395,2.08 h 0.087 c 0.146,-0.949 0.284,-1.678 0.416,-2.189 l 1.292,-5.168 h 2.672 l 1.314,5.255 c 0.116,0.511 0.232,1.212 0.35,2.102 h 0.065 c 0.103,-0.788 0.22,-1.481 0.351,-2.08 l 1.271,-5.277 h 2.89 l -2.736,10.489 h -3.418 z"
   id="path399" />
			<path
   d="m 213.503,104.034 h -2.606 c -0.029,-0.365 -0.153,-0.653 -0.372,-0.865 -0.219,-0.211 -0.496,-0.317 -0.832,-0.317 -0.336,0 -0.599,0.091 -0.789,0.274 -0.189,0.183 -0.284,0.397 -0.284,0.646 0,0.307 0.139,0.573 0.417,0.8 0.276,0.227 0.838,0.485 1.686,0.777 2.014,0.657 3.021,1.774 3.021,3.351 0,0.993 -0.361,1.803 -1.084,2.431 -0.723,0.628 -1.711,0.941 -2.967,0.941 -1.285,0 -2.267,-0.306 -2.945,-0.919 -0.678,-0.613 -1.048,-1.453 -1.105,-2.519 h 2.648 c 0.073,0.949 0.563,1.423 1.468,1.423 0.364,0 0.657,-0.105 0.876,-0.317 0.219,-0.211 0.328,-0.478 0.328,-0.799 0,-0.365 -0.152,-0.671 -0.459,-0.92 -0.307,-0.248 -0.848,-0.503 -1.621,-0.766 -2,-0.643 -3,-1.73 -3,-3.263 0,-0.934 0.35,-1.689 1.051,-2.267 0.701,-0.577 1.613,-0.865 2.738,-0.865 1.123,0 2.014,0.288 2.671,0.865 0.657,0.576 1.043,1.346 1.16,2.309 z"
   id="path401" />
		</g>
		<g
   id="g457">
			<linearGradient
   id="SVGID_8_"
   gradientUnits="userSpaceOnUse"
   x1="163.45171"
   y1="104.417"
   x2="213.7437"
   y2="104.417">
				<stop
   offset="0"
   style="stop-color:#6A30C3"
   id="stop405" />
				<stop
   offset="0.1496"
   style="stop-color:#7935C3"
   id="stop407" />
				<stop
   offset="0.4394"
   style="stop-color:#A244C3"
   id="stop409" />
				<stop
   offset="0.837"
   style="stop-color:#E25BC3"
   id="stop411" />
				<stop
   offset="1"
   style="stop-color:#FF65C3"
   id="stop413" />
			</linearGradient>
			<path
   fill="url(#SVGID_8_)"
   d="m 166.145,101.45 h -0.088 c 0.059,1.869 0.088,2.811 0.088,2.825 v 7.424 h -2.693 V 96.764 h 2.693 l 4.161,6.417 c 0.816,1.255 1.59,2.569 2.32,3.942 h 0.066 c -0.044,-1.489 -0.066,-2.387 -0.066,-2.694 v -7.665 h 2.694 v 14.935 h -2.694 l -3.81,-5.847 c -0.978,-1.533 -1.869,-3 -2.671,-4.402 z"
   id="path416"
   style="fill:url(#SVGID_8_)" />
			<linearGradient
   id="SVGID_9_"
   gradientUnits="userSpaceOnUse"
   x1="163.45171"
   y1="104.417"
   x2="213.7437"
   y2="104.417">
				<stop
   offset="0"
   style="stop-color:#6A30C3"
   id="stop418" />
				<stop
   offset="0.1496"
   style="stop-color:#7935C3"
   id="stop420" />
				<stop
   offset="0.4394"
   style="stop-color:#A244C3"
   id="stop422" />
				<stop
   offset="0.837"
   style="stop-color:#E25BC3"
   id="stop424" />
				<stop
   offset="1"
   style="stop-color:#FF65C3"
   id="stop426" />
			</linearGradient>
			<path
   fill="url(#SVGID_9_)"
   d="m 182.359,100.859 c 1.664,0 2.971,0.533 3.92,1.599 0.948,1.065 1.423,2.373 1.423,3.92 0,0.336 -0.015,0.599 -0.044,0.788 h -7.796 c 0,0.73 0.267,1.362 0.8,1.895 0.532,0.533 1.172,0.799 1.916,0.799 0.904,0 1.605,-0.365 2.102,-1.095 h 2.869 c -0.38,0.978 -0.982,1.774 -1.807,2.387 -0.825,0.613 -1.887,0.919 -3.186,0.919 -1.592,0 -2.921,-0.529 -3.986,-1.587 -1.066,-1.059 -1.599,-2.427 -1.599,-4.106 0,-1.562 0.485,-2.872 1.456,-3.931 0.971,-1.059 2.281,-1.588 3.932,-1.588 z m -0.023,2.058 c -0.687,0 -1.252,0.219 -1.696,0.657 -0.446,0.438 -0.697,0.963 -0.756,1.577 h 4.904 c -0.072,-0.627 -0.332,-1.157 -0.777,-1.587 -0.445,-0.43 -1.004,-0.647 -1.675,-0.647 z"
   id="path429"
   style="fill:url(#SVGID_9_)" />
			<linearGradient
   id="SVGID_10_"
   gradientUnits="userSpaceOnUse"
   x1="163.45171"
   y1="104.417"
   x2="213.7437"
   y2="104.417">
				<stop
   offset="0"
   style="stop-color:#6A30C3"
   id="stop431" />
				<stop
   offset="0.1496"
   style="stop-color:#7935C3"
   id="stop433" />
				<stop
   offset="0.4394"
   style="stop-color:#A244C3"
   id="stop435" />
				<stop
   offset="0.837"
   style="stop-color:#E25BC3"
   id="stop437" />
				<stop
   offset="1"
   style="stop-color:#FF65C3"
   id="stop439" />
			</linearGradient>
			<path
   fill="url(#SVGID_10_)"
   d="m 198.095,111.699 -1.052,-4.599 c -0.263,-1.285 -0.401,-2.044 -0.416,-2.278 h -0.088 c -0.087,0.73 -0.255,1.635 -0.503,2.715 l -0.964,4.161 h -3.416 l -2.649,-10.489 h 2.912 l 1.227,5.277 c 0.16,0.73 0.291,1.423 0.395,2.08 h 0.087 c 0.146,-0.949 0.284,-1.678 0.416,-2.189 l 1.292,-5.168 h 2.672 l 1.314,5.255 c 0.116,0.511 0.232,1.212 0.35,2.102 h 0.065 c 0.103,-0.788 0.22,-1.481 0.351,-2.08 l 1.271,-5.277 h 2.89 l -2.736,10.489 h -3.418 z"
   id="path442"
   style="fill:url(#SVGID_10_)" />
			<linearGradient
   id="SVGID_11_"
   gradientUnits="userSpaceOnUse"
   x1="163.45171"
   y1="104.417"
   x2="213.7437"
   y2="104.417">
				<stop
   offset="0"
   style="stop-color:#6A30C3"
   id="stop444" />
				<stop
   offset="0.1496"
   style="stop-color:#7935C3"
   id="stop446" />
				<stop
   offset="0.4394"
   style="stop-color:#A244C3"
   id="stop448" />
				<stop
   offset="0.837"
   style="stop-color:#E25BC3"
   id="stop450" />
				<stop
   offset="1"
   style="stop-color:#FF65C3"
   id="stop452" />
			</linearGradient>
			<path
   fill="url(#SVGID_11_)"
   d="m 213.503,104.034 h -2.606 c -0.029,-0.365 -0.153,-0.653 -0.372,-0.865 -0.219,-0.211 -0.496,-0.317 -0.832,-0.317 -0.336,0 -0.599,0.091 -0.789,0.274 -0.189,0.183 -0.284,0.397 -0.284,0.646 0,0.307 0.139,0.573 0.417,0.8 0.276,0.227 0.838,0.485 1.686,0.777 2.014,0.657 3.021,1.774 3.021,3.351 0,0.993 -0.361,1.803 -1.084,2.431 -0.723,0.628 -1.711,0.941 -2.967,0.941 -1.285,0 -2.267,-0.306 -2.945,-0.919 -0.678,-0.613 -1.048,-1.453 -1.105,-2.519 h 2.648 c 0.073,0.949 0.563,1.423 1.468,1.423 0.364,0 0.657,-0.105 0.876,-0.317 0.219,-0.211 0.328,-0.478 0.328,-0.799 0,-0.365 -0.152,-0.671 -0.459,-0.92 -0.307,-0.248 -0.848,-0.503 -1.621,-0.766 -2,-0.643 -3,-1.73 -3,-3.263 0,-0.934 0.35,-1.689 1.051,-2.267 0.701,-0.577 1.613,-0.865 2.738,-0.865 1.123,0 2.014,0.288 2.671,0.865 0.657,0.576 1.043,1.346 1.16,2.309 z"
   id="path455"
   style="fill:url(#SVGID_11_)" />
		</g>
		<g
   id="g467">
			<path
   fill="none"
   stroke="#ffffff"
   stroke-width="0.1"
   stroke-miterlimit="10"
   d="m 166.145,101.45 h -0.088 c 0.059,1.869 0.088,2.811 0.088,2.825 v 7.424 h -2.693 V 96.764 h 2.693 l 4.161,6.417 c 0.816,1.255 1.59,2.569 2.32,3.942 h 0.066 c -0.044,-1.489 -0.066,-2.387 -0.066,-2.694 v -7.665 h 2.694 v 14.935 h -2.694 l -3.81,-5.847 c -0.978,-1.533 -1.869,-3 -2.671,-4.402 z"
   id="path459" />
			<path
   fill="none"
   stroke="#ffffff"
   stroke-width="0.1"
   stroke-miterlimit="10"
   d="m 182.359,100.859 c 1.664,0 2.971,0.533 3.92,1.599 0.948,1.065 1.423,2.373 1.423,3.92 0,0.336 -0.015,0.599 -0.044,0.788 h -7.796 c 0,0.73 0.267,1.362 0.8,1.895 0.532,0.533 1.172,0.799 1.916,0.799 0.904,0 1.605,-0.365 2.102,-1.095 h 2.869 c -0.38,0.978 -0.982,1.774 -1.807,2.387 -0.825,0.613 -1.887,0.919 -3.186,0.919 -1.592,0 -2.921,-0.529 -3.986,-1.587 -1.066,-1.059 -1.599,-2.427 -1.599,-4.106 0,-1.562 0.485,-2.872 1.456,-3.931 0.971,-1.059 2.281,-1.588 3.932,-1.588 z m -0.023,2.058 c -0.687,0 -1.252,0.219 -1.696,0.657 -0.446,0.438 -0.697,0.963 -0.756,1.577 h 4.904 c -0.072,-0.627 -0.332,-1.157 -0.777,-1.587 -0.445,-0.43 -1.004,-0.647 -1.675,-0.647 z"
   id="path461" />
			<path
   fill="none"
   stroke="#ffffff"
   stroke-width="0.1"
   stroke-miterlimit="10"
   d="m 198.095,111.699 -1.052,-4.599 c -0.263,-1.285 -0.401,-2.044 -0.416,-2.278 h -0.088 c -0.087,0.73 -0.255,1.635 -0.503,2.715 l -0.964,4.161 h -3.416 l -2.649,-10.489 h 2.912 l 1.227,5.277 c 0.16,0.73 0.291,1.423 0.395,2.08 h 0.087 c 0.146,-0.949 0.284,-1.678 0.416,-2.189 l 1.292,-5.168 h 2.672 l 1.314,5.255 c 0.116,0.511 0.232,1.212 0.35,2.102 h 0.065 c 0.103,-0.788 0.22,-1.481 0.351,-2.08 l 1.271,-5.277 h 2.89 l -2.736,10.489 h -3.418 z"
   id="path463" />
			<path
   fill="none"
   stroke="#ffffff"
   stroke-width="0.1"
   stroke-miterlimit="10"
   d="m 213.503,104.034 h -2.606 c -0.029,-0.365 -0.153,-0.653 -0.372,-0.865 -0.219,-0.211 -0.496,-0.317 -0.832,-0.317 -0.336,0 -0.599,0.091 -0.789,0.274 -0.189,0.183 -0.284,0.397 -0.284,0.646 0,0.307 0.139,0.573 0.417,0.8 0.276,0.227 0.838,0.485 1.686,0.777 2.014,0.657 3.021,1.774 3.021,3.351 0,0.993 -0.361,1.803 -1.084,2.431 -0.723,0.628 -1.711,0.941 -2.967,0.941 -1.285,0 -2.267,-0.306 -2.945,-0.919 -0.678,-0.613 -1.048,-1.453 -1.105,-2.519 h 2.648 c 0.073,0.949 0.563,1.423 1.468,1.423 0.364,0 0.657,-0.105 0.876,-0.317 0.219,-0.211 0.328,-0.478 0.328,-0.799 0,-0.365 -0.152,-0.671 -0.459,-0.92 -0.307,-0.248 -0.848,-0.503 -1.621,-0.766 -2,-0.643 -3,-1.73 -3,-3.263 0,-0.934 0.35,-1.689 1.051,-2.267 0.701,-0.577 1.613,-0.865 2.738,-0.865 1.123,0 2.014,0.288 2.671,0.865 0.657,0.576 1.043,1.346 1.16,2.309 z"
   id="path465" />
		</g>
	</g>
</g>
</svg>
